<svg id="Capa_1" enable-background="new 0 0 512 512" height="512" viewBox="0 0 512 512" width="512" xmlns="http://www.w3.org/2000/svg"><g><path d="m497 70.375h-180.75c-24.619 0-46.513 11.884-60.25 30.216-13.737-18.332-35.631-30.216-60.25-30.216h-180.75c-8.284 0-15 6.716-15 15v341.25c0 8.284 6.716 15 15 15h482c8.284 0 15-6.716 15-15v-341.25c0-8.284-6.716-15-15-15zm-180.75 30h165.75v251h-165.75c-16.971 0-32.647 5.647-45.25 15.161v-220.911c0-24.951 20.299-45.25 45.25-45.25zm-286.25 0h165.75c24.951 0 45.25 20.299 45.25 45.25v220.911c-12.602-9.514-28.279-15.161-45.25-15.161h-165.75zm0 281h165.75c19.694 0 36.481 12.651 42.684 30.25h-208.434zm243.566 30.25c6.203-17.599 22.989-30.25 42.684-30.25h165.75v30.25z"/><path d="m75.25 180.625h120.5c8.284 0 15-6.716 15-15s-6.716-15-15-15h-120.5c-8.284 0-15 6.716-15 15s6.716 15 15 15z"/><path d="m75.25 240.875h120.5c8.284 0 15-6.716 15-15s-6.716-15-15-15h-120.5c-8.284 0-15 6.716-15 15s6.716 15 15 15z"/><path d="m210.75 286.125c0-8.284-6.716-15-15-15h-120.5c-8.284 0-15 6.716-15 15s6.716 15 15 15h120.5c8.284 0 15-6.716 15-15z"/><path d="m316.25 180.625h120.5c8.284 0 15-6.716 15-15s-6.716-15-15-15h-120.5c-8.284 0-15 6.716-15 15s6.716 15 15 15z"/><path d="m316.25 240.875h120.5c8.284 0 15-6.716 15-15s-6.716-15-15-15h-120.5c-8.284 0-15 6.716-15 15s6.716 15 15 15z"/><path d="m316.25 301.125h120.5c8.284 0 15-6.716 15-15s-6.716-15-15-15h-120.5c-8.284 0-15 6.716-15 15s6.716 15 15 15z"/></g></svg>